<svg xmlns="http://www.w3.org/2000/svg" version="1.1" xmlns:xlink="http://www.w3.org/1999/xlink" width="512" height="512" x="0" y="0" viewBox="0 0 12.7 12.7" style="enable-background:new 0 0 512 512" xml:space="preserve"><g><path d="M10.165.521a.529.529 0 0 0-.369.908l1.172 1.172c.106.105.159.24.16.375a.527.527 0 0 1-.16.374L9.796 4.522a.53.53 0 1 0 .749.749l1.172-1.173a1.595 1.595 0 0 0 0-2.245L10.545.68a.527.527 0 0 0-.38-.16zM5.3 2.446a3.448 3.448 0 0 0-3.44 3.44h-.001a.53.53 0 1 0 1.058 0A2.374 2.374 0 0 1 5.3 3.504h4.234a.53.53 0 1 0 0-1.06zm5.004 3.834a.53.53 0 0 0-.521.536h.002A2.374 2.374 0 0 1 7.4 9.196H3.167a.53.53 0 1 0 0 1.06l4.234-.001a3.448 3.448 0 0 0 3.44-3.44.529.529 0 0 0-.537-.535zm-7.768.99a.527.527 0 0 0-.38.16L.983 8.602a1.595 1.595 0 0 0 0 2.245l1.172 1.172a.53.53 0 1 0 .749-.748l-1.172-1.172a.528.528 0 0 1-.16-.375c.001-.134.054-.269.16-.374l1.172-1.172a.53.53 0 0 0-.37-.908z" fill="#ffffff" opacity="1" data-original="#000000"></path></g></svg>