<svg xmlns="http://www.w3.org/2000/svg" version="1.1" xmlns:xlink="http://www.w3.org/1999/xlink" width="512" height="512" x="0" y="0" viewBox="0 0 512 512" style="enable-background:new 0 0 512 512" xml:space="preserve" class=""><g><linearGradient id="a" x1="94.443" x2="420.648" y1="68.602" y2="394.806" gradientUnits="userSpaceOnUse"><stop offset="0"></stop><stop offset="1"></stop></linearGradient><path d="M102.15 374.605v23.159a4 4 0 0 0 4 4h299.698a4 4 0 0 0 4-4v-23.159a4 4 0 0 0-4-4H106.15a4 4 0 0 0-4 4zm299.698 19.16H110.15v-15.159h291.698zM409.848 114.235a4 4 0 0 0-4-4H106.15a4 4 0 0 0-4 4v151.267a4 4 0 0 0 4 4h27.58a4 4 0 0 0 4-4v-72.083h236.539v72.083a4 4 0 0 0 4 4h27.58a4 4 0 0 0 4-4V114.235zm-35.579 46.466H137.73v-16.716h236.539zm-236.539 8h236.539v16.719H137.73zm264.118 92.801h-19.58V139.984a4 4 0 0 0-4-4H133.73a4 4 0 0 0-4 4v121.518h-19.58V118.235h291.698zM361.428 360.256a4 4 0 0 0 4-4v-70.288a4 4 0 0 0-4-4h-.013l-210.857.683a4 4 0 0 0-3.987 4v69.605a4 4 0 0 0 4 4zm-4-8h-62.285v-62.073l18-.059v16.627a4.002 4.002 0 0 0 6.024 3.451l7.118-4.178 7.118 4.178a4.002 4.002 0 0 0 4.012.022 4 4 0 0 0 2.012-3.472V290.04l18-.059v62.275zM224.857 290.41l18-.059v16.399a3.999 3.999 0 0 0 6.024 3.45l7.118-4.178 7.117 4.178a4.006 4.006 0 0 0 4.013.022 4 4 0 0 0 2.012-3.472v-16.484l18.001-.059v62.048h-62.286V290.41zm36.285-.117v9.473l-3.117-1.83a4.007 4.007 0 0 0-4.049 0l-3.118 1.83v-9.439zm70.285-.229v9.701l-3.118-1.83a4.007 4.007 0 0 0-4.049 0l-3.118 1.83v-9.668zm-140.571.457v9.245l-3.117-1.83a4.007 4.007 0 0 0-4.049 0l-3.118 1.83v-9.212zm-36.285.117 18.002-.059v16.172a4.002 4.002 0 0 0 4 4 4 4 0 0 0 2.024-.55l7.118-4.178 7.117 4.178a4.003 4.003 0 0 0 6.025-3.451v-16.257l18-.059v61.82h-62.286zM4 238.307h69.606a4 4 0 0 0 4-4v-69.606a4 4 0 0 0-4-4H4a4 4 0 0 0-4 4v69.606a4 4 0 0 0 4 4zm39.856-69.606v9.593l-3.029-1.777a4.003 4.003 0 0 0-4.049 0l-3.029 1.777v-9.593zm-35.856 0h17.75v16.578a4.001 4.001 0 0 0 6.024 3.45l7.029-4.125 7.029 4.125a3.992 3.992 0 0 0 4.012.021 3.999 3.999 0 0 0 2.012-3.471v-16.578h17.75v61.606H8zM78.273 298.725a4.002 4.002 0 0 0-2.045 3.49v8.962H58.974a6.144 6.144 0 0 1-6.137-6.136v-27.854c0-6.713-5.461-12.175-12.174-12.175s-12.175 5.462-12.175 12.175v27.854c0 16.81 13.676 30.485 30.485 30.485h17.254v8.964a4 4 0 0 0 6.09 3.41l34.497-21.139a3.999 3.999 0 0 0 0-6.821l-34.497-21.137a4.006 4.006 0 0 0-4.044-.078zm5.955 38.623v-5.821a4 4 0 0 0-4-4H58.974c-12.398 0-22.485-10.087-22.485-22.485v-27.854a4.18 4.18 0 0 1 4.175-4.175 4.18 4.18 0 0 1 4.174 4.175v27.854c0 7.795 6.342 14.136 14.137 14.136h21.254a4 4 0 0 0 4-4v-5.82l22.84 13.995zM508 160.701h-69.606a4 4 0 0 0-4 4v69.606a4 4 0 0 0 4 4H508a4 4 0 0 0 4-4v-69.606a4 4 0 0 0-4-4zm-4 69.606h-61.606v-61.606h17.75v16.578a4.001 4.001 0 0 0 6.024 3.45l7.029-4.125 7.029 4.125a3.992 3.992 0 0 0 4.012.021 3.999 3.999 0 0 0 2.012-3.471v-16.578H504zm-25.75-61.606v9.593l-3.029-1.777a4.003 4.003 0 0 0-4.049 0l-3.029 1.777v-9.593zM450.977 327.52h-27.855c-6.713 0-12.174 5.462-12.174 12.175s5.461 12.175 12.174 12.175h27.855c16.81 0 30.485-13.676 30.485-30.486V304.13h8.964a3.999 3.999 0 0 0 3.411-6.09l-21.139-34.497a4 4 0 0 0-6.822 0L444.74 298.04a4 4 0 0 0 3.411 6.09h8.961v17.253a6.143 6.143 0 0 1-6.135 6.137zm32.306-31.39h-5.822a4 4 0 0 0-4 4v21.253c0 12.399-10.086 22.486-22.485 22.486h-27.855c-2.302 0-4.174-1.873-4.174-4.175s1.873-4.175 4.174-4.175h27.855c7.794 0 14.135-6.342 14.135-14.137V300.13a4 4 0 0 0-4-4h-5.819l13.995-22.841z" fill="#ffffff" opacity="1" data-original="#000000" class=""></path></g></svg>