<svg height="512" viewBox="0 0 128 128" width="512" xmlns="http://www.w3.org/2000/svg"><g><path d="m114.75 0h-101.5a1.75 1.75 0 0 0 -1.75 1.75v5a8.415 8.415 0 0 0 8.405 8.406h.365v19.921a42.528 42.528 0 0 0 15.794 33.023 9.789 9.789 0 0 0 5.473 17.908h11.389c-1.435 10.953-7.751 17.933-17.993 26.012l-5.04 3.98h-2.144a6 6 0 1 0 0 12h72.5a6 6 0 1 0 0-12h-2.142l-5.04-3.976c-10.242-8.079-16.558-15.059-17.993-26.012h11.389a9.789 9.789 0 0 0 5.473-17.912 42.524 42.524 0 0 0 15.793-33.027v-19.925h.366a8.415 8.415 0 0 0 8.405-8.406v-4.995a1.75 1.75 0 0 0 -1.75-1.747zm-10.589 37.378a38.515 38.515 0 0 1 -3.767 14.5h-72.789c-3.712-7.1-4.077-15.634-3.835-23.5h80.459c-.018 1.722.054 7.369-.068 9zm-1.411 84.622a2.5 2.5 0 0 1 -2.5 2.5h-72.5a2.5 2.5 0 1 1 0-5h72.5a2.5 2.5 0 0 1 2.5 2.5zm-11.85-7.227 1.556 1.227h-56.912l1.557-1.227c10.825-8.54 17.893-16.419 19.361-28.761h15.076c1.468 12.342 8.536 20.221 19.362 28.761zm-4.437-32.261h-44.926a6.292 6.292 0 1 1 0-12.584h44.926a6.292 6.292 0 1 1 0 12.584zm1.722-15.926a10.594 10.594 0 0 0 -1.722-.158h-44.926a10.616 10.616 0 0 0 -1.723.158 39.044 39.044 0 0 1 -10.314-11.211h69a39.048 39.048 0 0 1 -10.315 11.211zm16.044-41.711h-80.459v-9.727h80.459zm8.771-18.133a4.911 4.911 0 0 1 -4.905 4.906h-88.19a4.911 4.911 0 0 1 -4.905-4.906v-3.242h98z"/><path d="m64 33.313a6.813 6.813 0 1 0 6.812 6.812 6.82 6.82 0 0 0 -6.812-6.812zm0 10.125a3.313 3.313 0 1 1 3.312-3.313 3.317 3.317 0 0 1 -3.312 3.313z"/><path d="m87.226 33.313a6.813 6.813 0 1 0 6.812 6.812 6.82 6.82 0 0 0 -6.812-6.812zm0 10.125a3.313 3.313 0 1 1 3.312-3.313 3.316 3.316 0 0 1 -3.312 3.313z"/><path d="m40.774 33.313a6.813 6.813 0 1 0 6.813 6.812 6.82 6.82 0 0 0 -6.813-6.812zm0 10.125a3.313 3.313 0 1 1 3.313-3.313 3.316 3.316 0 0 1 -3.313 3.313z"/></g></svg>