<svg xmlns="http://www.w3.org/2000/svg" version="1.1" xmlns:xlink="http://www.w3.org/1999/xlink" width="512" height="512" x="0" y="0" viewBox="0 0 100.75 100.75" style="enable-background:new 0 0 512 512" xml:space="preserve" class=""><g><path d="m86.516 62.917-12.621-8.294a1.5 1.5 0 1 0-1.648 2.507l10.433 6.856-43.751 15.538L7.724 58.878l17.839-6.492a1.499 1.499 0 0 0 .896-1.923 1.499 1.499 0 0 0-1.922-.896l-20.66 7.519a1.496 1.496 0 0 0-.915 1.85v8.914c0 .175.036.34.091.496.01.475.244.937.67 1.219l34.174 22.61a1.5 1.5 0 0 0 .827.249c.297 0 .584-.098.834-.265l47.073-16.717c.554-.197.915-.688.981-1.235.083-.186.131-.391.131-.608V64.39a1.5 1.5 0 0 0-1.227-1.473zM5.962 61.31l31.263 20.684v6.139L5.962 67.449zm34.263 20.937 44.518-15.81v6.491l-44.518 15.81z" fill="#ffffff" opacity="1" data-original="#000000"></path><path d="M97.11 31.695c0-.734-.528-1.343-1.225-1.472L62.051 7.826c-.027-.018-.057-.028-.084-.044-.046-.026-.091-.052-.14-.073a1.54 1.54 0 0 0-.138-.051 1.296 1.296 0 0 0-.286-.063c-.045-.005-.09-.011-.136-.012a1.606 1.606 0 0 0-.155.006c-.045.003-.09.007-.136.014a1.435 1.435 0 0 0-.157.038c-.031.009-.062.012-.093.022L13.258 24.372a1.498 1.498 0 0 0-.928 1.869v8.902c0 .17.034.331.087.483a1.5 1.5 0 0 0 .671 1.231l34.168 22.618c.255.168.542.249.827.249.298 0 .586-.098.836-.267l47.074-16.708c.552-.196.911-.683.98-1.227a1.49 1.49 0 0 0 .137-.619zM61.018 10.74l31.039 20.547-43.769 15.534-31.165-20.63zM15.33 28.602l31.254 20.689v6.14L15.33 34.742zm34.254 20.942L94.11 33.741v6.491L49.584 56.036z" fill="#ffffff" opacity="1" data-original="#000000"></path></g></svg>