<svg xmlns="http://www.w3.org/2000/svg" version="1.1" xmlns:xlink="http://www.w3.org/1999/xlink" width="512" height="512" x="0" y="0" viewBox="0 0 64 64" style="enable-background:new 0 0 512 512" xml:space="preserve" class=""><g><path d="M15 4c-2.753 0-5 2.247-5 5v46c0 2.753 2.247 5 5 5h34c2.753 0 5-2.247 5-5V20c0-.91-.37-1.77-.992-2.406L40.715 5.008A3.38 3.38 0 0 0 38.293 4zm0 2h23v10c0 2.199 1.801 4 4 4h10v35c0 1.68-1.32 3-3 3H15c-1.68 0-3-1.32-3-3V9c0-1.68 1.32-3 3-3zm25 1.139L50.61 18H42c-1.125 0-2-.875-2-2z" fill="#ffffff" opacity="1" data-original="#000000" class=""></path><path d="M20 26c-1.09 0-2 .91-2 2v22c0 1.09.91 2 2 2h24c1.09 0 2-.91 2-2V28c0-1.09-.91-2-2-2zm0 2h6v6h-6zm8 0h16v6H28zm-8 8h6v6h-6zm8 0h16v6H28zm-8 8h6v6h-6zm8 0h16v6H28z" fill="#ffffff" opacity="1" data-original="#000000" class=""></path></g></svg>