<svg id="svg8" height="512" viewBox="0 0 64 64" width="512" xmlns="http://www.w3.org/2000/svg" xmlns:svg="http://www.w3.org/2000/svg"><g id="g2140" transform="translate(-80 -400)"><path id="path2109" d="m95 404c-2.752703 0-5 2.2473-5 5v46c0 2.7527 2.247297 5 5 5h34c2.7527 0 5-2.2473 5-5v-35c0-.91071-.37051-1.76976-.99219-2.40625l-12.29297-12.58594c-.64316-.65849-1.52226-1.00781-2.42187-1.00781zm0 2h23v10c0 2.1987 1.8013 4 4 4h10v35c0 1.6793-1.3207 3-3 3h-34c-1.679297 0-3-1.3207-3-3v-46c0-1.6793 1.320703-3 3-3zm25 1.13867 10.60938 10.86133h-8.60938c-1.1253 0-2-.8747-2-2z" font-variant-ligatures="normal" font-variant-position="normal" font-variant-caps="normal" font-variant-numeric="normal" font-variant-alternates="normal" font-variant-east-asian="normal" font-feature-settings="normal" font-variation-settings="normal" text-indent="0" text-align="start" text-decoration-line="none" text-decoration-style="solid" text-decoration-color="rgb(0,0,0)" text-transform="none" text-orientation="mixed" white-space="normal" shape-padding="0" shape-margin="0" inline-size="0" isolation="auto" mix-blend-mode="normal" solid-color="rgb(0,0,0)" solid-opacity="1" vector-effect="none"/><path id="rect2126" d="m100 426c-1.090705 0-2 .90929-2 2v22c0 1.09071.909295 2 2 2h24c1.0907 0 2-.90929 2-2v-22c0-1.09071-.9093-2-2-2zm0 2h6v6h-6zm8 0h16v6h-16zm-8 8h6v6h-6zm8 0h16v6h-16zm-8 8h6v6h-6zm8 0h16v6h-16z" font-variant-ligatures="normal" font-variant-position="normal" font-variant-caps="normal" font-variant-numeric="normal" font-variant-alternates="normal" font-variant-east-asian="normal" font-feature-settings="normal" font-variation-settings="normal" text-indent="0" text-align="start" text-decoration-line="none" text-decoration-style="solid" text-decoration-color="rgb(0,0,0)" text-transform="none" text-orientation="mixed" white-space="normal" shape-padding="0" shape-margin="0" inline-size="0" isolation="auto" mix-blend-mode="normal" solid-color="rgb(0,0,0)" solid-opacity="1" vector-effect="none"/></g></svg>