<svg xmlns="http://www.w3.org/2000/svg" version="1.1" xmlns:xlink="http://www.w3.org/1999/xlink" width="512" height="512" x="0" y="0" viewBox="0 0 512 512" style="enable-background:new 0 0 512 512" xml:space="preserve" class=""><g><path d="M400 304.005c-8.832 0-16 7.168-16 16v144H32v-352h144c8.832 0 16-7.168 16-16s-7.168-16-16-16H16c-8.832 0-16 7.168-16 16v384c0 8.832 7.168 16 16 16h384c8.832 0 16-7.168 16-16v-160c0-8.832-7.168-16-16-16z" fill="#ffffff" opacity="1" data-original="#000000" class=""></path><path d="m506.528 131.973-128-112a15.89 15.89 0 0 0-17.152-2.528A16.013 16.013 0 0 0 352 32.005v48h-9.472c-102.848 0-191.36 76.768-205.92 178.592l-8.448 59.168c-1.056 7.456 3.232 14.688 10.368 17.28 1.792.64 3.648.96 5.472.96 5.376 0 10.592-2.72 13.568-7.52l23.584-37.76c32.384-51.776 88.192-82.72 149.28-82.72H352v48c0 6.272 3.68 11.968 9.376 14.56 5.664 2.592 12.416 1.632 17.152-2.528l128-112c3.488-3.04 5.472-7.392 5.472-12.032s-1.984-8.992-5.472-12.032zM384 220.741v-28.736c0-8.832-7.168-16-16-16h-37.568c-62.72 0-120.736 27.584-159.968 74.976 17.28-80.032 89.184-138.976 172.064-138.976H368c8.832 0 16-7.168 16-16V67.269l87.712 76.736L384 220.741z" fill="#ffffff" opacity="1" data-original="#000000" class=""></path></g></svg>