<svg xmlns="http://www.w3.org/2000/svg" version="1.1" xmlns:xlink="http://www.w3.org/1999/xlink" width="512" height="512" x="0" y="0" viewBox="0 0 128 128" style="enable-background:new 0 0 512 512" xml:space="preserve"><g><path d="M114.75 0H13.25a1.75 1.75 0 0 0-1.75 1.75v5a8.415 8.415 0 0 0 8.405 8.406h.365v19.921A42.528 42.528 0 0 0 36.064 68.1a9.789 9.789 0 0 0 5.473 17.908h11.389c-1.435 10.953-7.751 17.933-17.993 26.012l-5.04 3.98h-2.144a6 6 0 1 0 0 12h72.5a6 6 0 1 0 0-12h-2.142l-5.04-3.976c-10.242-8.079-16.558-15.059-17.993-26.012h11.389A9.789 9.789 0 0 0 91.936 68.1a42.524 42.524 0 0 0 15.793-33.027V15.148h.366a8.415 8.415 0 0 0 8.405-8.406V1.747A1.75 1.75 0 0 0 114.75 0zm-10.589 37.378a38.515 38.515 0 0 1-3.767 14.5H27.605c-3.712-7.1-4.077-15.634-3.835-23.5h80.459c-.018 1.722.054 7.369-.068 9zM102.75 122a2.5 2.5 0 0 1-2.5 2.5h-72.5a2.5 2.5 0 1 1 0-5h72.5a2.5 2.5 0 0 1 2.5 2.5zm-11.85-7.227L92.456 116H35.544l1.557-1.227c10.825-8.54 17.893-16.419 19.361-28.761h15.076c1.468 12.342 8.536 20.221 19.362 28.761zm-4.437-32.261H41.537a6.292 6.292 0 1 1 0-12.584h44.926a6.292 6.292 0 1 1 0 12.584zm1.722-15.926a10.594 10.594 0 0 0-1.722-.158H41.537a10.616 10.616 0 0 0-1.723.158A39.044 39.044 0 0 1 29.5 55.375h69a39.048 39.048 0 0 1-10.315 11.211zm16.044-41.711H23.77v-9.727h80.459zM113 6.742a4.911 4.911 0 0 1-4.905 4.906h-88.19A4.911 4.911 0 0 1 15 6.742V3.5h98z" fill="#ffffff" opacity="1" data-original="#000000"></path><path d="M64 33.313a6.813 6.813 0 1 0 6.812 6.812A6.82 6.82 0 0 0 64 33.313zm0 10.125a3.313 3.313 0 1 1 3.312-3.313A3.317 3.317 0 0 1 64 43.438zM87.226 33.313a6.813 6.813 0 1 0 6.812 6.812 6.82 6.82 0 0 0-6.812-6.812zm0 10.125a3.313 3.313 0 1 1 3.312-3.313 3.316 3.316 0 0 1-3.312 3.313zM40.774 33.313a6.813 6.813 0 1 0 6.813 6.812 6.82 6.82 0 0 0-6.813-6.812zm0 10.125a3.313 3.313 0 1 1 3.313-3.313 3.316 3.316 0 0 1-3.313 3.313z" fill="#ffffff" opacity="1" data-original="#000000"></path></g></svg>