<svg xmlns="http://www.w3.org/2000/svg" version="1.1" xmlns:xlink="http://www.w3.org/1999/xlink" width="512" height="512" x="0" y="0" viewBox="0 0 512 512" style="enable-background:new 0 0 512 512" xml:space="preserve" class=""><g><linearGradient id="a" x1="94.666" x2="498.477" y1="45.17" y2="448.981" gradientUnits="userSpaceOnUse"><stop offset="0"></stop><stop offset="1"></stop></linearGradient><path d="M508 74.198H132.118a4 4 0 0 0-4 4v189.719a4 4 0 0 0 4 4h34.59a4 4 0 0 0 4-4v-91.422H469.41v224.261H132.118a4 4 0 0 0-4 4v29.046a4 4 0 0 0 4 4H508a4 4 0 0 0 4-4V78.198a4 4 0 0 0-4-4zM136.118 408.756H504v21.046H136.118zM469.41 137.495H170.708v-23.002H469.41zm-298.702 8H469.41v23H170.708zm306.702-35.003a4 4 0 0 0-4-4H166.708a4 4 0 0 0-4 4v153.425h-26.59V82.198H504v318.558h-26.59z" fill="#ffffff" opacity="1" data-original="#000000" class=""></path><path d="M452.288 385.741a4 4 0 0 0 4-4v-88.155a4 4 0 0 0-4-4h-.013l-264.458.856a4 4 0 0 0-3.987 4v87.299a4 4 0 0 0 4 4zm-4-8h-80.152v-79.883l24.609-.08v21.874a3.999 3.999 0 0 0 6.024 3.45l9.442-5.542 9.44 5.541a4 4 0 0 0 6.025-3.45v-21.974l24.61-.08v80.144zm-168.305-79.596 24.61-.08v21.588a3.999 3.999 0 0 0 6.024 3.45l9.442-5.542 9.44 5.541a4 4 0 0 0 6.025-3.45v-21.688l24.611-.079v79.856h-80.153v-79.596zm47.542-.155v14.676l-5.44-3.192a4.003 4.003 0 0 0-4.049-.001l-5.442 3.194v-14.629zm88.153-.286v14.962l-5.44-3.192a4.003 4.003 0 0 0-4.049-.001l-5.442 3.194v-14.914zm-176.304.571v14.391l-5.44-3.192a4.003 4.003 0 0 0-4.049-.001l-5.442 3.194v-14.343zm-47.544.155 24.612-.08v21.303a3.999 3.999 0 0 0 6.024 3.45l9.442-5.542 9.44 5.541a4.002 4.002 0 0 0 6.025-3.45V298.25l24.609-.08v79.571H191.83zM4 232.792h87.3a4 4 0 0 0 4-4v-87.3a4 4 0 0 0-4-4H4a4 4 0 0 0-4 4v87.3a4 4 0 0 0 4 4zm51.005-87.3v14.824l-5.33-3.128a4.004 4.004 0 0 0-4.05 0l-5.329 3.128v-14.823h14.709zm-47.005 0h24.296v21.81a3.999 3.999 0 0 0 6.025 3.45l9.329-5.476 9.33 5.476a3.995 3.995 0 0 0 4.013.021 3.998 3.998 0 0 0 2.012-3.471v-21.81H87.3v79.3H8zM144.96 311.852l-43.265-26.51a4.001 4.001 0 0 0-6.089 3.411v12.257H72.948c-4.805 0-8.713-3.908-8.713-8.713v-34.935c0-7.859-6.394-14.253-14.252-14.253-7.859 0-14.253 6.394-14.253 14.253v34.935c0 20.522 16.696 37.219 37.218 37.219h22.657v12.259a4 4 0 0 0 6.09 3.41l43.265-26.512a3.999 3.999 0 0 0 0-6.821zm-41.355 22.78v-9.116a4 4 0 0 0-4-4H72.948c-16.111 0-29.218-13.107-29.218-29.219v-34.935a6.26 6.26 0 0 1 6.253-6.253 6.26 6.26 0 0 1 6.252 6.253v34.935c0 9.216 7.498 16.713 16.713 16.713h26.657a4 4 0 0 0 4-4v-9.115l31.609 19.368z" fill="#ffffff" opacity="1" data-original="#000000" class=""></path><path d="M147.66 369.751c0-8.172-6.649-14.819-14.821-14.819H88.601v-13.157a4 4 0 0 0-6.089-3.411l-45.66 27.977a4.002 4.002 0 0 0 0 6.821l45.66 27.979a3.992 3.992 0 0 0 4.045.08 4 4 0 0 0 2.045-3.49v-13.158h44.238c8.171-.001 14.82-6.649 14.82-14.822zm-67.059 10.821v10.016l-34.004-20.837 34.004-20.835v10.016a4 4 0 0 0 4 4h48.238c3.761 0 6.821 3.06 6.821 6.819a6.828 6.828 0 0 1-6.821 6.821H84.601a4 4 0 0 0-4 4z" fill="#ffffff" opacity="1" data-original="#000000" class=""></path></g></svg>