<svg xmlns="http://www.w3.org/2000/svg" version="1.1" xmlns:xlink="http://www.w3.org/1999/xlink" width="512" height="512" x="0" y="0" viewBox="0 0 512 512" style="enable-background:new 0 0 512 512" xml:space="preserve"><g><path fill="#ffffff" d="M493.23 150.654 344.95 2.345a7.995 7.995 0 0 0-5.653-2.343H171.343c-39.091 0-70.895 31.804-70.895 70.896v140.314h-62.22c-12.021 0-21.8 9.779-21.8 21.799V358.33c0 12.02 9.779 21.799 21.8 21.799h62.22v60.973c0 39.092 31.804 70.896 70.895 70.896h253.332c39.092 0 70.896-31.804 70.896-70.896V156.305c0-2.12-.843-4.152-2.341-5.651zM347.291 27.298 468.28 148.311H355.284c-4.407 0-7.993-3.599-7.993-8.021zM32.417 358.331v-125.32a5.817 5.817 0 0 1 5.812-5.811h341.603a5.817 5.817 0 0 1 5.811 5.811V358.33a5.817 5.817 0 0 1-5.811 5.811H38.229a5.817 5.817 0 0 1-5.812-5.81zm392.258 137.678H171.343c-30.275 0-54.906-24.631-54.906-54.907v-60.973h263.395c12.02 0 21.799-9.779 21.799-21.799V233.011c0-12.02-9.779-21.799-21.799-21.799H116.437V70.898c0-30.276 24.631-54.907 54.906-54.907h159.959V140.29c0 13.239 10.758 24.01 23.981 24.01h124.299v276.803c.001 30.275-24.63 54.906-54.907 54.906zM247.398 338.573a7.994 7.994 0 0 1-7.994 7.994H187.87a7.994 7.994 0 0 1-7.994-7.994v-85.775a7.994 7.994 0 1 1 15.988 0v77.781h43.54a7.994 7.994 0 0 1 7.994 7.994zm-88.364-81.658-23.293 38.771 23.293 38.771a7.996 7.996 0 0 1-6.844 12.113 7.99 7.99 0 0 1-6.86-3.878l-18.914-31.482-18.916 31.48a7.992 7.992 0 0 1-10.969 2.735 7.995 7.995 0 0 1-2.735-10.97l23.293-38.771-23.293-38.771a7.996 7.996 0 0 1 2.735-10.97 7.997 7.997 0 0 1 10.97 2.735l18.914 31.482 18.914-31.482a8 8 0 0 1 10.97-2.735 7.998 7.998 0 0 1 2.735 10.972zm114.84 17.312c0 7.366 1.663 13.464 22.109 13.464 16.225 0 29.425 13.199 29.425 29.424 0 16.239-13.2 29.452-29.425 29.452h-12.756c-13.974 0-25.342-11.368-25.342-25.342a7.994 7.994 0 1 1 15.988 0c0 5.07 4.283 9.354 9.354 9.354h12.756c7.409 0 13.437-6.04 13.437-13.464 0-7.408-6.027-13.436-13.437-13.436-6.769 0-16.677-.492-24.531-4.74-6.188-3.348-13.566-10.352-13.566-24.712 0-16.224 13.213-29.424 29.452-29.424h12.756c13.958 0 25.314 11.355 25.314 25.313a7.994 7.994 0 1 1-15.988 0c0-5.143-4.184-9.325-9.326-9.325h-12.756c-7.424.001-13.464 6.028-13.464 13.436z" opacity="1" data-original="#00733b"></path></g></svg>